%TF.GenerationSoftware,KiCad,Pcbnew,5.1.7-a382d34a8~88~ubuntu20.04.1*%
%TF.CreationDate,2020-12-22T17:38:33+00:00*%
%TF.ProjectId,DisplayBreakoutBoard,44697370-6c61-4794-9272-65616b6f7574,v1*%
%TF.SameCoordinates,Original*%
%TF.FileFunction,Soldermask,Top*%
%TF.FilePolarity,Negative*%
%FSLAX46Y46*%
G04 Gerber Fmt 4.6, Leading zero omitted, Abs format (unit mm)*
G04 Created by KiCad (PCBNEW 5.1.7-a382d34a8~88~ubuntu20.04.1) date 2020-12-22 17:38:33*
%MOMM*%
%LPD*%
G01*
G04 APERTURE LIST*
%ADD10C,0.700000*%
%ADD11C,4.400000*%
%ADD12R,0.650000X1.060000*%
%ADD13R,1.700000X1.700000*%
%ADD14O,1.700000X1.700000*%
%ADD15R,1.800000X2.200000*%
%ADD16R,0.300000X1.300000*%
%ADD17C,0.100000*%
G04 APERTURE END LIST*
D10*
%TO.C,H4*%
X90316726Y-82383274D03*
X89150000Y-81900000D03*
X87983274Y-82383274D03*
X87500000Y-83550000D03*
X87983274Y-84716726D03*
X89150000Y-85200000D03*
X90316726Y-84716726D03*
X90800000Y-83550000D03*
D11*
X89150000Y-83550000D03*
%TD*%
%TO.C,C1*%
G36*
G01*
X69050000Y-44625000D02*
X68550000Y-44625000D01*
G75*
G02*
X68325000Y-44400000I0J225000D01*
G01*
X68325000Y-43950000D01*
G75*
G02*
X68550000Y-43725000I225000J0D01*
G01*
X69050000Y-43725000D01*
G75*
G02*
X69275000Y-43950000I0J-225000D01*
G01*
X69275000Y-44400000D01*
G75*
G02*
X69050000Y-44625000I-225000J0D01*
G01*
G37*
G36*
G01*
X69050000Y-43075000D02*
X68550000Y-43075000D01*
G75*
G02*
X68325000Y-42850000I0J225000D01*
G01*
X68325000Y-42400000D01*
G75*
G02*
X68550000Y-42175000I225000J0D01*
G01*
X69050000Y-42175000D01*
G75*
G02*
X69275000Y-42400000I0J-225000D01*
G01*
X69275000Y-42850000D01*
G75*
G02*
X69050000Y-43075000I-225000J0D01*
G01*
G37*
%TD*%
%TO.C,C2*%
G36*
G01*
X63050000Y-43075000D02*
X62550000Y-43075000D01*
G75*
G02*
X62325000Y-42850000I0J225000D01*
G01*
X62325000Y-42400000D01*
G75*
G02*
X62550000Y-42175000I225000J0D01*
G01*
X63050000Y-42175000D01*
G75*
G02*
X63275000Y-42400000I0J-225000D01*
G01*
X63275000Y-42850000D01*
G75*
G02*
X63050000Y-43075000I-225000J0D01*
G01*
G37*
G36*
G01*
X63050000Y-44625000D02*
X62550000Y-44625000D01*
G75*
G02*
X62325000Y-44400000I0J225000D01*
G01*
X62325000Y-43950000D01*
G75*
G02*
X62550000Y-43725000I225000J0D01*
G01*
X63050000Y-43725000D01*
G75*
G02*
X63275000Y-43950000I0J-225000D01*
G01*
X63275000Y-44400000D01*
G75*
G02*
X63050000Y-44625000I-225000J0D01*
G01*
G37*
%TD*%
%TO.C,C3*%
G36*
G01*
X64525000Y-41200000D02*
X64525000Y-40700000D01*
G75*
G02*
X64750000Y-40475000I225000J0D01*
G01*
X65200000Y-40475000D01*
G75*
G02*
X65425000Y-40700000I0J-225000D01*
G01*
X65425000Y-41200000D01*
G75*
G02*
X65200000Y-41425000I-225000J0D01*
G01*
X64750000Y-41425000D01*
G75*
G02*
X64525000Y-41200000I0J225000D01*
G01*
G37*
G36*
G01*
X66075000Y-41200000D02*
X66075000Y-40700000D01*
G75*
G02*
X66300000Y-40475000I225000J0D01*
G01*
X66750000Y-40475000D01*
G75*
G02*
X66975000Y-40700000I0J-225000D01*
G01*
X66975000Y-41200000D01*
G75*
G02*
X66750000Y-41425000I-225000J0D01*
G01*
X66300000Y-41425000D01*
G75*
G02*
X66075000Y-41200000I0J225000D01*
G01*
G37*
%TD*%
%TO.C,C4*%
G36*
G01*
X66175000Y-46825000D02*
X66175000Y-46325000D01*
G75*
G02*
X66400000Y-46100000I225000J0D01*
G01*
X66850000Y-46100000D01*
G75*
G02*
X67075000Y-46325000I0J-225000D01*
G01*
X67075000Y-46825000D01*
G75*
G02*
X66850000Y-47050000I-225000J0D01*
G01*
X66400000Y-47050000D01*
G75*
G02*
X66175000Y-46825000I0J225000D01*
G01*
G37*
G36*
G01*
X64625000Y-46825000D02*
X64625000Y-46325000D01*
G75*
G02*
X64850000Y-46100000I225000J0D01*
G01*
X65300000Y-46100000D01*
G75*
G02*
X65525000Y-46325000I0J-225000D01*
G01*
X65525000Y-46825000D01*
G75*
G02*
X65300000Y-47050000I-225000J0D01*
G01*
X64850000Y-47050000D01*
G75*
G02*
X64625000Y-46825000I0J225000D01*
G01*
G37*
%TD*%
%TO.C,C5*%
G36*
G01*
X63375000Y-68600000D02*
X63375000Y-69100000D01*
G75*
G02*
X63150000Y-69325000I-225000J0D01*
G01*
X62700000Y-69325000D01*
G75*
G02*
X62475000Y-69100000I0J225000D01*
G01*
X62475000Y-68600000D01*
G75*
G02*
X62700000Y-68375000I225000J0D01*
G01*
X63150000Y-68375000D01*
G75*
G02*
X63375000Y-68600000I0J-225000D01*
G01*
G37*
G36*
G01*
X64925000Y-68600000D02*
X64925000Y-69100000D01*
G75*
G02*
X64700000Y-69325000I-225000J0D01*
G01*
X64250000Y-69325000D01*
G75*
G02*
X64025000Y-69100000I0J225000D01*
G01*
X64025000Y-68600000D01*
G75*
G02*
X64250000Y-68375000I225000J0D01*
G01*
X64700000Y-68375000D01*
G75*
G02*
X64925000Y-68600000I0J-225000D01*
G01*
G37*
%TD*%
%TO.C,C6*%
G36*
G01*
X62475000Y-70750000D02*
X62475000Y-70250000D01*
G75*
G02*
X62700000Y-70025000I225000J0D01*
G01*
X63150000Y-70025000D01*
G75*
G02*
X63375000Y-70250000I0J-225000D01*
G01*
X63375000Y-70750000D01*
G75*
G02*
X63150000Y-70975000I-225000J0D01*
G01*
X62700000Y-70975000D01*
G75*
G02*
X62475000Y-70750000I0J225000D01*
G01*
G37*
G36*
G01*
X64025000Y-70750000D02*
X64025000Y-70250000D01*
G75*
G02*
X64250000Y-70025000I225000J0D01*
G01*
X64700000Y-70025000D01*
G75*
G02*
X64925000Y-70250000I0J-225000D01*
G01*
X64925000Y-70750000D01*
G75*
G02*
X64700000Y-70975000I-225000J0D01*
G01*
X64250000Y-70975000D01*
G75*
G02*
X64025000Y-70750000I0J225000D01*
G01*
G37*
%TD*%
%TO.C,C7*%
G36*
G01*
X62475000Y-72400000D02*
X62475000Y-71900000D01*
G75*
G02*
X62700000Y-71675000I225000J0D01*
G01*
X63150000Y-71675000D01*
G75*
G02*
X63375000Y-71900000I0J-225000D01*
G01*
X63375000Y-72400000D01*
G75*
G02*
X63150000Y-72625000I-225000J0D01*
G01*
X62700000Y-72625000D01*
G75*
G02*
X62475000Y-72400000I0J225000D01*
G01*
G37*
G36*
G01*
X64025000Y-72400000D02*
X64025000Y-71900000D01*
G75*
G02*
X64250000Y-71675000I225000J0D01*
G01*
X64700000Y-71675000D01*
G75*
G02*
X64925000Y-71900000I0J-225000D01*
G01*
X64925000Y-72400000D01*
G75*
G02*
X64700000Y-72625000I-225000J0D01*
G01*
X64250000Y-72625000D01*
G75*
G02*
X64025000Y-72400000I0J225000D01*
G01*
G37*
%TD*%
D12*
%TO.C,IC1*%
X66750000Y-42725000D03*
X65800000Y-42725000D03*
X64850000Y-42725000D03*
X64850000Y-44925000D03*
X66750000Y-44925000D03*
%TD*%
D13*
%TO.C,J1*%
X68800000Y-34850000D03*
D14*
X66260000Y-34850000D03*
X63720000Y-34850000D03*
X61180000Y-34850000D03*
X58640000Y-34850000D03*
X56100000Y-34850000D03*
X53560000Y-34850000D03*
X51020000Y-34850000D03*
%TD*%
D15*
%TO.C,J2*%
X63900000Y-79350000D03*
X55600000Y-79350000D03*
D16*
X62000000Y-76100000D03*
X61500000Y-76100000D03*
X61000000Y-76100000D03*
X60500000Y-76100000D03*
X60000000Y-76100000D03*
X59500000Y-76100000D03*
X59000000Y-76100000D03*
X58500000Y-76100000D03*
X58000000Y-76100000D03*
X57500000Y-76100000D03*
%TD*%
D17*
%TO.C,JP1*%
G36*
X63600000Y-38000602D02*
G01*
X63624534Y-38000602D01*
X63673365Y-38005412D01*
X63721490Y-38014984D01*
X63768445Y-38029228D01*
X63813778Y-38048005D01*
X63857051Y-38071136D01*
X63897850Y-38098396D01*
X63935779Y-38129524D01*
X63970476Y-38164221D01*
X64001604Y-38202150D01*
X64028864Y-38242949D01*
X64051995Y-38286222D01*
X64070772Y-38331555D01*
X64085016Y-38378510D01*
X64094588Y-38426635D01*
X64099398Y-38475466D01*
X64099398Y-38500000D01*
X64100000Y-38500000D01*
X64100000Y-39000000D01*
X64099398Y-39000000D01*
X64099398Y-39024534D01*
X64094588Y-39073365D01*
X64085016Y-39121490D01*
X64070772Y-39168445D01*
X64051995Y-39213778D01*
X64028864Y-39257051D01*
X64001604Y-39297850D01*
X63970476Y-39335779D01*
X63935779Y-39370476D01*
X63897850Y-39401604D01*
X63857051Y-39428864D01*
X63813778Y-39451995D01*
X63768445Y-39470772D01*
X63721490Y-39485016D01*
X63673365Y-39494588D01*
X63624534Y-39499398D01*
X63600000Y-39499398D01*
X63600000Y-39500000D01*
X63100000Y-39500000D01*
X63100000Y-38000000D01*
X63600000Y-38000000D01*
X63600000Y-38000602D01*
G37*
G36*
X62800000Y-39500000D02*
G01*
X62300000Y-39500000D01*
X62300000Y-39499398D01*
X62275466Y-39499398D01*
X62226635Y-39494588D01*
X62178510Y-39485016D01*
X62131555Y-39470772D01*
X62086222Y-39451995D01*
X62042949Y-39428864D01*
X62002150Y-39401604D01*
X61964221Y-39370476D01*
X61929524Y-39335779D01*
X61898396Y-39297850D01*
X61871136Y-39257051D01*
X61848005Y-39213778D01*
X61829228Y-39168445D01*
X61814984Y-39121490D01*
X61805412Y-39073365D01*
X61800602Y-39024534D01*
X61800602Y-39000000D01*
X61800000Y-39000000D01*
X61800000Y-38500000D01*
X61800602Y-38500000D01*
X61800602Y-38475466D01*
X61805412Y-38426635D01*
X61814984Y-38378510D01*
X61829228Y-38331555D01*
X61848005Y-38286222D01*
X61871136Y-38242949D01*
X61898396Y-38202150D01*
X61929524Y-38164221D01*
X61964221Y-38129524D01*
X62002150Y-38098396D01*
X62042949Y-38071136D01*
X62086222Y-38048005D01*
X62131555Y-38029228D01*
X62178510Y-38014984D01*
X62226635Y-38005412D01*
X62275466Y-38000602D01*
X62300000Y-38000602D01*
X62300000Y-38000000D01*
X62800000Y-38000000D01*
X62800000Y-39500000D01*
G37*
%TD*%
D11*
%TO.C,H1*%
X31000000Y-34750000D03*
D10*
X32650000Y-34750000D03*
X32166726Y-35916726D03*
X31000000Y-36400000D03*
X29833274Y-35916726D03*
X29350000Y-34750000D03*
X29833274Y-33583274D03*
X31000000Y-33100000D03*
X32166726Y-33583274D03*
%TD*%
%TO.C,H2*%
X90166726Y-33583274D03*
X89000000Y-33100000D03*
X87833274Y-33583274D03*
X87350000Y-34750000D03*
X87833274Y-35916726D03*
X89000000Y-36400000D03*
X90166726Y-35916726D03*
X90650000Y-34750000D03*
D11*
X89000000Y-34750000D03*
%TD*%
%TO.C,H3*%
X30800000Y-83550000D03*
D10*
X32450000Y-83550000D03*
X31966726Y-84716726D03*
X30800000Y-85200000D03*
X29633274Y-84716726D03*
X29150000Y-83550000D03*
X29633274Y-82383274D03*
X30800000Y-81900000D03*
X31966726Y-82383274D03*
%TD*%
M02*
