%TF.GenerationSoftware,KiCad,Pcbnew,5.1.7-a382d34a8~88~ubuntu20.04.1*%
%TF.CreationDate,2020-12-22T17:38:33+00:00*%
%TF.ProjectId,DisplayBreakoutBoard,44697370-6c61-4794-9272-65616b6f7574,v1*%
%TF.SameCoordinates,Original*%
%TF.FileFunction,Copper,L2,Bot*%
%TF.FilePolarity,Positive*%
%FSLAX46Y46*%
G04 Gerber Fmt 4.6, Leading zero omitted, Abs format (unit mm)*
G04 Created by KiCad (PCBNEW 5.1.7-a382d34a8~88~ubuntu20.04.1) date 2020-12-22 17:38:33*
%MOMM*%
%LPD*%
G01*
G04 APERTURE LIST*
%TA.AperFunction,ComponentPad*%
%ADD10C,0.700000*%
%TD*%
%TA.AperFunction,ComponentPad*%
%ADD11C,4.400000*%
%TD*%
%TA.AperFunction,ComponentPad*%
%ADD12R,1.700000X1.700000*%
%TD*%
%TA.AperFunction,ComponentPad*%
%ADD13O,1.700000X1.700000*%
%TD*%
%TA.AperFunction,ViaPad*%
%ADD14C,0.800000*%
%TD*%
%TA.AperFunction,Conductor*%
%ADD15C,0.250000*%
%TD*%
%TA.AperFunction,Conductor*%
%ADD16C,0.254000*%
%TD*%
%TA.AperFunction,Conductor*%
%ADD17C,0.100000*%
%TD*%
G04 APERTURE END LIST*
D10*
%TO.P,H4,1*%
%TO.N,N/C*%
X90316726Y-82383274D03*
X89150000Y-81900000D03*
X87983274Y-82383274D03*
X87500000Y-83550000D03*
X87983274Y-84716726D03*
X89150000Y-85200000D03*
X90316726Y-84716726D03*
X90800000Y-83550000D03*
D11*
X89150000Y-83550000D03*
%TD*%
D12*
%TO.P,J1,1*%
%TO.N,/3V3*%
X68800000Y-34850000D03*
D13*
%TO.P,J1,2*%
%TO.N,/GND*%
X66260000Y-34850000D03*
%TO.P,J1,3*%
%TO.N,/EXTMODE*%
X63720000Y-34850000D03*
%TO.P,J1,4*%
%TO.N,/DISP*%
X61180000Y-34850000D03*
%TO.P,J1,5*%
%TO.N,/EXTCOMIN*%
X58640000Y-34850000D03*
%TO.P,J1,6*%
%TO.N,/SCS*%
X56100000Y-34850000D03*
%TO.P,J1,7*%
%TO.N,/SI*%
X53560000Y-34850000D03*
%TO.P,J1,8*%
%TO.N,/SCLK*%
X51020000Y-34850000D03*
%TD*%
D11*
%TO.P,H1,1*%
%TO.N,N/C*%
X31000000Y-34750000D03*
D10*
X32650000Y-34750000D03*
X32166726Y-35916726D03*
X31000000Y-36400000D03*
X29833274Y-35916726D03*
X29350000Y-34750000D03*
X29833274Y-33583274D03*
X31000000Y-33100000D03*
X32166726Y-33583274D03*
%TD*%
%TO.P,H2,1*%
%TO.N,N/C*%
X90166726Y-33583274D03*
X89000000Y-33100000D03*
X87833274Y-33583274D03*
X87350000Y-34750000D03*
X87833274Y-35916726D03*
X89000000Y-36400000D03*
X90166726Y-35916726D03*
X90650000Y-34750000D03*
D11*
X89000000Y-34750000D03*
%TD*%
%TO.P,H3,1*%
%TO.N,N/C*%
X30800000Y-83550000D03*
D10*
X32450000Y-83550000D03*
X31966726Y-84716726D03*
X30800000Y-85200000D03*
X29633274Y-84716726D03*
X29150000Y-83550000D03*
X29633274Y-82383274D03*
X30800000Y-81900000D03*
X31966726Y-82383274D03*
%TD*%
D14*
%TO.N,/GND*%
X63000000Y-76100000D03*
X64500000Y-73450000D03*
%TO.N,/DISP*%
X61200000Y-37000000D03*
X62900000Y-67500000D03*
%TO.N,/EXTMODE*%
X61400000Y-74100000D03*
X61000000Y-38750000D03*
%TD*%
D15*
%TO.N,/GND*%
X63000000Y-76100000D02*
X64500000Y-74600000D01*
X64500000Y-74600000D02*
X64500000Y-73450000D01*
%TO.N,/DISP*%
X62900000Y-38700000D02*
X62900000Y-67500000D01*
X61200000Y-37000000D02*
X62900000Y-38700000D01*
%TO.N,/EXTMODE*%
X61000000Y-72700000D02*
X61000000Y-38750000D01*
X61400000Y-73100000D02*
X61000000Y-72700000D01*
X61400000Y-74100000D02*
X61400000Y-73100000D01*
%TD*%
D16*
%TO.N,/GND*%
X86797912Y-32942793D02*
X86487656Y-33407124D01*
X86273948Y-33923061D01*
X86165000Y-34470777D01*
X86165000Y-35029223D01*
X86273948Y-35576939D01*
X86487656Y-36092876D01*
X86797912Y-36557207D01*
X87192793Y-36952088D01*
X87657124Y-37262344D01*
X88173061Y-37476052D01*
X88720777Y-37585000D01*
X89279223Y-37585000D01*
X89826939Y-37476052D01*
X90342876Y-37262344D01*
X90807207Y-36952088D01*
X91090001Y-36669294D01*
X91090000Y-80723651D01*
X89485528Y-80726200D01*
X89429223Y-80715000D01*
X88870777Y-80715000D01*
X88809070Y-80727274D01*
X31597832Y-80818158D01*
X31079223Y-80715000D01*
X30520777Y-80715000D01*
X29989322Y-80820713D01*
X28910000Y-80822428D01*
X28910000Y-36669295D01*
X29192793Y-36952088D01*
X29657124Y-37262344D01*
X30173061Y-37476052D01*
X30720777Y-37585000D01*
X31279223Y-37585000D01*
X31826939Y-37476052D01*
X32342876Y-37262344D01*
X32807207Y-36952088D01*
X33202088Y-36557207D01*
X33512344Y-36092876D01*
X33726052Y-35576939D01*
X33835000Y-35029223D01*
X33835000Y-34703740D01*
X49535000Y-34703740D01*
X49535000Y-34996260D01*
X49592068Y-35283158D01*
X49704010Y-35553411D01*
X49866525Y-35796632D01*
X50073368Y-36003475D01*
X50316589Y-36165990D01*
X50586842Y-36277932D01*
X50873740Y-36335000D01*
X51166260Y-36335000D01*
X51453158Y-36277932D01*
X51723411Y-36165990D01*
X51966632Y-36003475D01*
X52173475Y-35796632D01*
X52290000Y-35622240D01*
X52406525Y-35796632D01*
X52613368Y-36003475D01*
X52856589Y-36165990D01*
X53126842Y-36277932D01*
X53413740Y-36335000D01*
X53706260Y-36335000D01*
X53993158Y-36277932D01*
X54263411Y-36165990D01*
X54506632Y-36003475D01*
X54713475Y-35796632D01*
X54830000Y-35622240D01*
X54946525Y-35796632D01*
X55153368Y-36003475D01*
X55396589Y-36165990D01*
X55666842Y-36277932D01*
X55953740Y-36335000D01*
X56246260Y-36335000D01*
X56533158Y-36277932D01*
X56803411Y-36165990D01*
X57046632Y-36003475D01*
X57253475Y-35796632D01*
X57370000Y-35622240D01*
X57486525Y-35796632D01*
X57693368Y-36003475D01*
X57936589Y-36165990D01*
X58206842Y-36277932D01*
X58493740Y-36335000D01*
X58786260Y-36335000D01*
X59073158Y-36277932D01*
X59343411Y-36165990D01*
X59586632Y-36003475D01*
X59793475Y-35796632D01*
X59910000Y-35622240D01*
X60026525Y-35796632D01*
X60233368Y-36003475D01*
X60476589Y-36165990D01*
X60543657Y-36193770D01*
X60540226Y-36196063D01*
X60396063Y-36340226D01*
X60282795Y-36509744D01*
X60204774Y-36698102D01*
X60165000Y-36898061D01*
X60165000Y-37101939D01*
X60204774Y-37301898D01*
X60282795Y-37490256D01*
X60396063Y-37659774D01*
X60540226Y-37803937D01*
X60555222Y-37813957D01*
X60509744Y-37832795D01*
X60340226Y-37946063D01*
X60196063Y-38090226D01*
X60082795Y-38259744D01*
X60004774Y-38448102D01*
X59965000Y-38648061D01*
X59965000Y-38851939D01*
X60004774Y-39051898D01*
X60082795Y-39240256D01*
X60196063Y-39409774D01*
X60240001Y-39453712D01*
X60240000Y-72662678D01*
X60236324Y-72700000D01*
X60240000Y-72737322D01*
X60240000Y-72737332D01*
X60250997Y-72848985D01*
X60281947Y-72951014D01*
X60294454Y-72992246D01*
X60365026Y-73124276D01*
X60404871Y-73172826D01*
X60459999Y-73240001D01*
X60489002Y-73263803D01*
X60630744Y-73405545D01*
X60596063Y-73440226D01*
X60482795Y-73609744D01*
X60404774Y-73798102D01*
X60365000Y-73998061D01*
X60365000Y-74201939D01*
X60404774Y-74401898D01*
X60482795Y-74590256D01*
X60596063Y-74759774D01*
X60740226Y-74903937D01*
X60909744Y-75017205D01*
X61098102Y-75095226D01*
X61298061Y-75135000D01*
X61501939Y-75135000D01*
X61701898Y-75095226D01*
X61890256Y-75017205D01*
X62059774Y-74903937D01*
X62203937Y-74759774D01*
X62317205Y-74590256D01*
X62395226Y-74401898D01*
X62435000Y-74201939D01*
X62435000Y-73998061D01*
X62395226Y-73798102D01*
X62317205Y-73609744D01*
X62203937Y-73440226D01*
X62160000Y-73396289D01*
X62160000Y-73137322D01*
X62163676Y-73099999D01*
X62160000Y-73062676D01*
X62160000Y-73062667D01*
X62149003Y-72951014D01*
X62105546Y-72807753D01*
X62034974Y-72675724D01*
X61940001Y-72559999D01*
X61911002Y-72536200D01*
X61760000Y-72385198D01*
X61760000Y-39453711D01*
X61803937Y-39409774D01*
X61917205Y-39240256D01*
X61995226Y-39051898D01*
X62025400Y-38900202D01*
X62140000Y-39014802D01*
X62140001Y-66796288D01*
X62096063Y-66840226D01*
X61982795Y-67009744D01*
X61904774Y-67198102D01*
X61865000Y-67398061D01*
X61865000Y-67601939D01*
X61904774Y-67801898D01*
X61982795Y-67990256D01*
X62096063Y-68159774D01*
X62240226Y-68303937D01*
X62409744Y-68417205D01*
X62598102Y-68495226D01*
X62798061Y-68535000D01*
X63001939Y-68535000D01*
X63201898Y-68495226D01*
X63390256Y-68417205D01*
X63559774Y-68303937D01*
X63703937Y-68159774D01*
X63817205Y-67990256D01*
X63895226Y-67801898D01*
X63935000Y-67601939D01*
X63935000Y-67398061D01*
X63895226Y-67198102D01*
X63817205Y-67009744D01*
X63703937Y-66840226D01*
X63660000Y-66796289D01*
X63660000Y-38737322D01*
X63663676Y-38699999D01*
X63660000Y-38662676D01*
X63660000Y-38662667D01*
X63649003Y-38551014D01*
X63605546Y-38407753D01*
X63534975Y-38275725D01*
X63534974Y-38275723D01*
X63463799Y-38188997D01*
X63440001Y-38159999D01*
X63411004Y-38136202D01*
X62235000Y-36960199D01*
X62235000Y-36898061D01*
X62195226Y-36698102D01*
X62117205Y-36509744D01*
X62003937Y-36340226D01*
X61859774Y-36196063D01*
X61841036Y-36183542D01*
X61883411Y-36165990D01*
X62126632Y-36003475D01*
X62333475Y-35796632D01*
X62450000Y-35622240D01*
X62566525Y-35796632D01*
X62773368Y-36003475D01*
X63016589Y-36165990D01*
X63286842Y-36277932D01*
X63573740Y-36335000D01*
X63866260Y-36335000D01*
X64153158Y-36277932D01*
X64423411Y-36165990D01*
X64666632Y-36003475D01*
X64873475Y-35796632D01*
X64995195Y-35614466D01*
X65064822Y-35731355D01*
X65259731Y-35947588D01*
X65493080Y-36121641D01*
X65755901Y-36246825D01*
X65903110Y-36291476D01*
X66133000Y-36170155D01*
X66133000Y-34977000D01*
X66113000Y-34977000D01*
X66113000Y-34723000D01*
X66133000Y-34723000D01*
X66133000Y-33529845D01*
X66387000Y-33529845D01*
X66387000Y-34723000D01*
X66407000Y-34723000D01*
X66407000Y-34977000D01*
X66387000Y-34977000D01*
X66387000Y-36170155D01*
X66616890Y-36291476D01*
X66764099Y-36246825D01*
X67026920Y-36121641D01*
X67260269Y-35947588D01*
X67336034Y-35863534D01*
X67360498Y-35944180D01*
X67419463Y-36054494D01*
X67498815Y-36151185D01*
X67595506Y-36230537D01*
X67705820Y-36289502D01*
X67825518Y-36325812D01*
X67950000Y-36338072D01*
X69650000Y-36338072D01*
X69774482Y-36325812D01*
X69894180Y-36289502D01*
X70004494Y-36230537D01*
X70101185Y-36151185D01*
X70180537Y-36054494D01*
X70239502Y-35944180D01*
X70275812Y-35824482D01*
X70288072Y-35700000D01*
X70288072Y-34000000D01*
X70275812Y-33875518D01*
X70239502Y-33755820D01*
X70180537Y-33645506D01*
X70101185Y-33548815D01*
X70004494Y-33469463D01*
X69894180Y-33410498D01*
X69774482Y-33374188D01*
X69650000Y-33361928D01*
X67950000Y-33361928D01*
X67825518Y-33374188D01*
X67705820Y-33410498D01*
X67595506Y-33469463D01*
X67498815Y-33548815D01*
X67419463Y-33645506D01*
X67360498Y-33755820D01*
X67336034Y-33836466D01*
X67260269Y-33752412D01*
X67026920Y-33578359D01*
X66764099Y-33453175D01*
X66616890Y-33408524D01*
X66387000Y-33529845D01*
X66133000Y-33529845D01*
X65903110Y-33408524D01*
X65755901Y-33453175D01*
X65493080Y-33578359D01*
X65259731Y-33752412D01*
X65064822Y-33968645D01*
X64995195Y-34085534D01*
X64873475Y-33903368D01*
X64666632Y-33696525D01*
X64423411Y-33534010D01*
X64153158Y-33422068D01*
X63866260Y-33365000D01*
X63573740Y-33365000D01*
X63286842Y-33422068D01*
X63016589Y-33534010D01*
X62773368Y-33696525D01*
X62566525Y-33903368D01*
X62450000Y-34077760D01*
X62333475Y-33903368D01*
X62126632Y-33696525D01*
X61883411Y-33534010D01*
X61613158Y-33422068D01*
X61326260Y-33365000D01*
X61033740Y-33365000D01*
X60746842Y-33422068D01*
X60476589Y-33534010D01*
X60233368Y-33696525D01*
X60026525Y-33903368D01*
X59910000Y-34077760D01*
X59793475Y-33903368D01*
X59586632Y-33696525D01*
X59343411Y-33534010D01*
X59073158Y-33422068D01*
X58786260Y-33365000D01*
X58493740Y-33365000D01*
X58206842Y-33422068D01*
X57936589Y-33534010D01*
X57693368Y-33696525D01*
X57486525Y-33903368D01*
X57370000Y-34077760D01*
X57253475Y-33903368D01*
X57046632Y-33696525D01*
X56803411Y-33534010D01*
X56533158Y-33422068D01*
X56246260Y-33365000D01*
X55953740Y-33365000D01*
X55666842Y-33422068D01*
X55396589Y-33534010D01*
X55153368Y-33696525D01*
X54946525Y-33903368D01*
X54830000Y-34077760D01*
X54713475Y-33903368D01*
X54506632Y-33696525D01*
X54263411Y-33534010D01*
X53993158Y-33422068D01*
X53706260Y-33365000D01*
X53413740Y-33365000D01*
X53126842Y-33422068D01*
X52856589Y-33534010D01*
X52613368Y-33696525D01*
X52406525Y-33903368D01*
X52290000Y-34077760D01*
X52173475Y-33903368D01*
X51966632Y-33696525D01*
X51723411Y-33534010D01*
X51453158Y-33422068D01*
X51166260Y-33365000D01*
X50873740Y-33365000D01*
X50586842Y-33422068D01*
X50316589Y-33534010D01*
X50073368Y-33696525D01*
X49866525Y-33903368D01*
X49704010Y-34146589D01*
X49592068Y-34416842D01*
X49535000Y-34703740D01*
X33835000Y-34703740D01*
X33835000Y-34470777D01*
X33726052Y-33923061D01*
X33512344Y-33407124D01*
X33202088Y-32942793D01*
X32919295Y-32660000D01*
X87080705Y-32660000D01*
X86797912Y-32942793D01*
%TA.AperFunction,Conductor*%
D17*
G36*
X86797912Y-32942793D02*
G01*
X86487656Y-33407124D01*
X86273948Y-33923061D01*
X86165000Y-34470777D01*
X86165000Y-35029223D01*
X86273948Y-35576939D01*
X86487656Y-36092876D01*
X86797912Y-36557207D01*
X87192793Y-36952088D01*
X87657124Y-37262344D01*
X88173061Y-37476052D01*
X88720777Y-37585000D01*
X89279223Y-37585000D01*
X89826939Y-37476052D01*
X90342876Y-37262344D01*
X90807207Y-36952088D01*
X91090001Y-36669294D01*
X91090000Y-80723651D01*
X89485528Y-80726200D01*
X89429223Y-80715000D01*
X88870777Y-80715000D01*
X88809070Y-80727274D01*
X31597832Y-80818158D01*
X31079223Y-80715000D01*
X30520777Y-80715000D01*
X29989322Y-80820713D01*
X28910000Y-80822428D01*
X28910000Y-36669295D01*
X29192793Y-36952088D01*
X29657124Y-37262344D01*
X30173061Y-37476052D01*
X30720777Y-37585000D01*
X31279223Y-37585000D01*
X31826939Y-37476052D01*
X32342876Y-37262344D01*
X32807207Y-36952088D01*
X33202088Y-36557207D01*
X33512344Y-36092876D01*
X33726052Y-35576939D01*
X33835000Y-35029223D01*
X33835000Y-34703740D01*
X49535000Y-34703740D01*
X49535000Y-34996260D01*
X49592068Y-35283158D01*
X49704010Y-35553411D01*
X49866525Y-35796632D01*
X50073368Y-36003475D01*
X50316589Y-36165990D01*
X50586842Y-36277932D01*
X50873740Y-36335000D01*
X51166260Y-36335000D01*
X51453158Y-36277932D01*
X51723411Y-36165990D01*
X51966632Y-36003475D01*
X52173475Y-35796632D01*
X52290000Y-35622240D01*
X52406525Y-35796632D01*
X52613368Y-36003475D01*
X52856589Y-36165990D01*
X53126842Y-36277932D01*
X53413740Y-36335000D01*
X53706260Y-36335000D01*
X53993158Y-36277932D01*
X54263411Y-36165990D01*
X54506632Y-36003475D01*
X54713475Y-35796632D01*
X54830000Y-35622240D01*
X54946525Y-35796632D01*
X55153368Y-36003475D01*
X55396589Y-36165990D01*
X55666842Y-36277932D01*
X55953740Y-36335000D01*
X56246260Y-36335000D01*
X56533158Y-36277932D01*
X56803411Y-36165990D01*
X57046632Y-36003475D01*
X57253475Y-35796632D01*
X57370000Y-35622240D01*
X57486525Y-35796632D01*
X57693368Y-36003475D01*
X57936589Y-36165990D01*
X58206842Y-36277932D01*
X58493740Y-36335000D01*
X58786260Y-36335000D01*
X59073158Y-36277932D01*
X59343411Y-36165990D01*
X59586632Y-36003475D01*
X59793475Y-35796632D01*
X59910000Y-35622240D01*
X60026525Y-35796632D01*
X60233368Y-36003475D01*
X60476589Y-36165990D01*
X60543657Y-36193770D01*
X60540226Y-36196063D01*
X60396063Y-36340226D01*
X60282795Y-36509744D01*
X60204774Y-36698102D01*
X60165000Y-36898061D01*
X60165000Y-37101939D01*
X60204774Y-37301898D01*
X60282795Y-37490256D01*
X60396063Y-37659774D01*
X60540226Y-37803937D01*
X60555222Y-37813957D01*
X60509744Y-37832795D01*
X60340226Y-37946063D01*
X60196063Y-38090226D01*
X60082795Y-38259744D01*
X60004774Y-38448102D01*
X59965000Y-38648061D01*
X59965000Y-38851939D01*
X60004774Y-39051898D01*
X60082795Y-39240256D01*
X60196063Y-39409774D01*
X60240001Y-39453712D01*
X60240000Y-72662678D01*
X60236324Y-72700000D01*
X60240000Y-72737322D01*
X60240000Y-72737332D01*
X60250997Y-72848985D01*
X60281947Y-72951014D01*
X60294454Y-72992246D01*
X60365026Y-73124276D01*
X60404871Y-73172826D01*
X60459999Y-73240001D01*
X60489002Y-73263803D01*
X60630744Y-73405545D01*
X60596063Y-73440226D01*
X60482795Y-73609744D01*
X60404774Y-73798102D01*
X60365000Y-73998061D01*
X60365000Y-74201939D01*
X60404774Y-74401898D01*
X60482795Y-74590256D01*
X60596063Y-74759774D01*
X60740226Y-74903937D01*
X60909744Y-75017205D01*
X61098102Y-75095226D01*
X61298061Y-75135000D01*
X61501939Y-75135000D01*
X61701898Y-75095226D01*
X61890256Y-75017205D01*
X62059774Y-74903937D01*
X62203937Y-74759774D01*
X62317205Y-74590256D01*
X62395226Y-74401898D01*
X62435000Y-74201939D01*
X62435000Y-73998061D01*
X62395226Y-73798102D01*
X62317205Y-73609744D01*
X62203937Y-73440226D01*
X62160000Y-73396289D01*
X62160000Y-73137322D01*
X62163676Y-73099999D01*
X62160000Y-73062676D01*
X62160000Y-73062667D01*
X62149003Y-72951014D01*
X62105546Y-72807753D01*
X62034974Y-72675724D01*
X61940001Y-72559999D01*
X61911002Y-72536200D01*
X61760000Y-72385198D01*
X61760000Y-39453711D01*
X61803937Y-39409774D01*
X61917205Y-39240256D01*
X61995226Y-39051898D01*
X62025400Y-38900202D01*
X62140000Y-39014802D01*
X62140001Y-66796288D01*
X62096063Y-66840226D01*
X61982795Y-67009744D01*
X61904774Y-67198102D01*
X61865000Y-67398061D01*
X61865000Y-67601939D01*
X61904774Y-67801898D01*
X61982795Y-67990256D01*
X62096063Y-68159774D01*
X62240226Y-68303937D01*
X62409744Y-68417205D01*
X62598102Y-68495226D01*
X62798061Y-68535000D01*
X63001939Y-68535000D01*
X63201898Y-68495226D01*
X63390256Y-68417205D01*
X63559774Y-68303937D01*
X63703937Y-68159774D01*
X63817205Y-67990256D01*
X63895226Y-67801898D01*
X63935000Y-67601939D01*
X63935000Y-67398061D01*
X63895226Y-67198102D01*
X63817205Y-67009744D01*
X63703937Y-66840226D01*
X63660000Y-66796289D01*
X63660000Y-38737322D01*
X63663676Y-38699999D01*
X63660000Y-38662676D01*
X63660000Y-38662667D01*
X63649003Y-38551014D01*
X63605546Y-38407753D01*
X63534975Y-38275725D01*
X63534974Y-38275723D01*
X63463799Y-38188997D01*
X63440001Y-38159999D01*
X63411004Y-38136202D01*
X62235000Y-36960199D01*
X62235000Y-36898061D01*
X62195226Y-36698102D01*
X62117205Y-36509744D01*
X62003937Y-36340226D01*
X61859774Y-36196063D01*
X61841036Y-36183542D01*
X61883411Y-36165990D01*
X62126632Y-36003475D01*
X62333475Y-35796632D01*
X62450000Y-35622240D01*
X62566525Y-35796632D01*
X62773368Y-36003475D01*
X63016589Y-36165990D01*
X63286842Y-36277932D01*
X63573740Y-36335000D01*
X63866260Y-36335000D01*
X64153158Y-36277932D01*
X64423411Y-36165990D01*
X64666632Y-36003475D01*
X64873475Y-35796632D01*
X64995195Y-35614466D01*
X65064822Y-35731355D01*
X65259731Y-35947588D01*
X65493080Y-36121641D01*
X65755901Y-36246825D01*
X65903110Y-36291476D01*
X66133000Y-36170155D01*
X66133000Y-34977000D01*
X66113000Y-34977000D01*
X66113000Y-34723000D01*
X66133000Y-34723000D01*
X66133000Y-33529845D01*
X66387000Y-33529845D01*
X66387000Y-34723000D01*
X66407000Y-34723000D01*
X66407000Y-34977000D01*
X66387000Y-34977000D01*
X66387000Y-36170155D01*
X66616890Y-36291476D01*
X66764099Y-36246825D01*
X67026920Y-36121641D01*
X67260269Y-35947588D01*
X67336034Y-35863534D01*
X67360498Y-35944180D01*
X67419463Y-36054494D01*
X67498815Y-36151185D01*
X67595506Y-36230537D01*
X67705820Y-36289502D01*
X67825518Y-36325812D01*
X67950000Y-36338072D01*
X69650000Y-36338072D01*
X69774482Y-36325812D01*
X69894180Y-36289502D01*
X70004494Y-36230537D01*
X70101185Y-36151185D01*
X70180537Y-36054494D01*
X70239502Y-35944180D01*
X70275812Y-35824482D01*
X70288072Y-35700000D01*
X70288072Y-34000000D01*
X70275812Y-33875518D01*
X70239502Y-33755820D01*
X70180537Y-33645506D01*
X70101185Y-33548815D01*
X70004494Y-33469463D01*
X69894180Y-33410498D01*
X69774482Y-33374188D01*
X69650000Y-33361928D01*
X67950000Y-33361928D01*
X67825518Y-33374188D01*
X67705820Y-33410498D01*
X67595506Y-33469463D01*
X67498815Y-33548815D01*
X67419463Y-33645506D01*
X67360498Y-33755820D01*
X67336034Y-33836466D01*
X67260269Y-33752412D01*
X67026920Y-33578359D01*
X66764099Y-33453175D01*
X66616890Y-33408524D01*
X66387000Y-33529845D01*
X66133000Y-33529845D01*
X65903110Y-33408524D01*
X65755901Y-33453175D01*
X65493080Y-33578359D01*
X65259731Y-33752412D01*
X65064822Y-33968645D01*
X64995195Y-34085534D01*
X64873475Y-33903368D01*
X64666632Y-33696525D01*
X64423411Y-33534010D01*
X64153158Y-33422068D01*
X63866260Y-33365000D01*
X63573740Y-33365000D01*
X63286842Y-33422068D01*
X63016589Y-33534010D01*
X62773368Y-33696525D01*
X62566525Y-33903368D01*
X62450000Y-34077760D01*
X62333475Y-33903368D01*
X62126632Y-33696525D01*
X61883411Y-33534010D01*
X61613158Y-33422068D01*
X61326260Y-33365000D01*
X61033740Y-33365000D01*
X60746842Y-33422068D01*
X60476589Y-33534010D01*
X60233368Y-33696525D01*
X60026525Y-33903368D01*
X59910000Y-34077760D01*
X59793475Y-33903368D01*
X59586632Y-33696525D01*
X59343411Y-33534010D01*
X59073158Y-33422068D01*
X58786260Y-33365000D01*
X58493740Y-33365000D01*
X58206842Y-33422068D01*
X57936589Y-33534010D01*
X57693368Y-33696525D01*
X57486525Y-33903368D01*
X57370000Y-34077760D01*
X57253475Y-33903368D01*
X57046632Y-33696525D01*
X56803411Y-33534010D01*
X56533158Y-33422068D01*
X56246260Y-33365000D01*
X55953740Y-33365000D01*
X55666842Y-33422068D01*
X55396589Y-33534010D01*
X55153368Y-33696525D01*
X54946525Y-33903368D01*
X54830000Y-34077760D01*
X54713475Y-33903368D01*
X54506632Y-33696525D01*
X54263411Y-33534010D01*
X53993158Y-33422068D01*
X53706260Y-33365000D01*
X53413740Y-33365000D01*
X53126842Y-33422068D01*
X52856589Y-33534010D01*
X52613368Y-33696525D01*
X52406525Y-33903368D01*
X52290000Y-34077760D01*
X52173475Y-33903368D01*
X51966632Y-33696525D01*
X51723411Y-33534010D01*
X51453158Y-33422068D01*
X51166260Y-33365000D01*
X50873740Y-33365000D01*
X50586842Y-33422068D01*
X50316589Y-33534010D01*
X50073368Y-33696525D01*
X49866525Y-33903368D01*
X49704010Y-34146589D01*
X49592068Y-34416842D01*
X49535000Y-34703740D01*
X33835000Y-34703740D01*
X33835000Y-34470777D01*
X33726052Y-33923061D01*
X33512344Y-33407124D01*
X33202088Y-32942793D01*
X32919295Y-32660000D01*
X87080705Y-32660000D01*
X86797912Y-32942793D01*
G37*
%TD.AperFunction*%
%TD*%
M02*
