%TF.GenerationSoftware,KiCad,Pcbnew,5.1.7-a382d34a8~88~ubuntu20.04.1*%
%TF.CreationDate,2020-12-22T17:38:33+00:00*%
%TF.ProjectId,DisplayBreakoutBoard,44697370-6c61-4794-9272-65616b6f7574,v1*%
%TF.SameCoordinates,Original*%
%TF.FileFunction,Legend,Top*%
%TF.FilePolarity,Positive*%
%FSLAX46Y46*%
G04 Gerber Fmt 4.6, Leading zero omitted, Abs format (unit mm)*
G04 Created by KiCad (PCBNEW 5.1.7-a382d34a8~88~ubuntu20.04.1) date 2020-12-22 17:38:33*
%MOMM*%
%LPD*%
G01*
G04 APERTURE LIST*
%ADD10C,0.150000*%
%ADD11C,0.200000*%
%ADD12C,0.120000*%
%ADD13C,0.254000*%
G04 APERTURE END LIST*
D10*
X30575714Y-79878571D02*
X30575714Y-78378571D01*
X30575714Y-79807142D02*
X30432857Y-79878571D01*
X30147142Y-79878571D01*
X30004285Y-79807142D01*
X29932857Y-79735714D01*
X29861428Y-79592857D01*
X29861428Y-79164285D01*
X29932857Y-79021428D01*
X30004285Y-78950000D01*
X30147142Y-78878571D01*
X30432857Y-78878571D01*
X30575714Y-78950000D01*
X31932857Y-79878571D02*
X31932857Y-78378571D01*
X31932857Y-79807142D02*
X31789999Y-79878571D01*
X31504285Y-79878571D01*
X31361428Y-79807142D01*
X31289999Y-79735714D01*
X31218571Y-79592857D01*
X31218571Y-79164285D01*
X31289999Y-79021428D01*
X31361428Y-78950000D01*
X31504285Y-78878571D01*
X31789999Y-78878571D01*
X31932857Y-78950000D01*
X33147142Y-79092857D02*
X33361428Y-79164285D01*
X33432857Y-79235714D01*
X33504285Y-79378571D01*
X33504285Y-79592857D01*
X33432857Y-79735714D01*
X33361428Y-79807142D01*
X33218571Y-79878571D01*
X32647142Y-79878571D01*
X32647142Y-78378571D01*
X33147142Y-78378571D01*
X33289999Y-78450000D01*
X33361428Y-78521428D01*
X33432857Y-78664285D01*
X33432857Y-78807142D01*
X33361428Y-78950000D01*
X33289999Y-79021428D01*
X33147142Y-79092857D01*
X32647142Y-79092857D01*
X34432857Y-78378571D02*
X34575714Y-78378571D01*
X34718571Y-78450000D01*
X34790000Y-78521428D01*
X34861428Y-78664285D01*
X34932857Y-78950000D01*
X34932857Y-79307142D01*
X34861428Y-79592857D01*
X34790000Y-79735714D01*
X34718571Y-79807142D01*
X34575714Y-79878571D01*
X34432857Y-79878571D01*
X34290000Y-79807142D01*
X34218571Y-79735714D01*
X34147142Y-79592857D01*
X34075714Y-79307142D01*
X34075714Y-78950000D01*
X34147142Y-78664285D01*
X34218571Y-78521428D01*
X34290000Y-78450000D01*
X34432857Y-78378571D01*
X36290000Y-78378571D02*
X35575714Y-78378571D01*
X35504285Y-79092857D01*
X35575714Y-79021428D01*
X35718571Y-78950000D01*
X36075714Y-78950000D01*
X36218571Y-79021428D01*
X36290000Y-79092857D01*
X36361428Y-79235714D01*
X36361428Y-79592857D01*
X36290000Y-79735714D01*
X36218571Y-79807142D01*
X36075714Y-79878571D01*
X35718571Y-79878571D01*
X35575714Y-79807142D01*
X35504285Y-79735714D01*
X37790000Y-79878571D02*
X36932857Y-79878571D01*
X37361428Y-79878571D02*
X37361428Y-78378571D01*
X37218571Y-78592857D01*
X37075714Y-78735714D01*
X36932857Y-78807142D01*
X39147142Y-78378571D02*
X38432857Y-78378571D01*
X38361428Y-79092857D01*
X38432857Y-79021428D01*
X38575714Y-78950000D01*
X38932857Y-78950000D01*
X39075714Y-79021428D01*
X39147142Y-79092857D01*
X39218571Y-79235714D01*
X39218571Y-79592857D01*
X39147142Y-79735714D01*
X39075714Y-79807142D01*
X38932857Y-79878571D01*
X38575714Y-79878571D01*
X38432857Y-79807142D01*
X38361428Y-79735714D01*
X49647619Y-33323809D02*
X49761904Y-33361904D01*
X49952380Y-33361904D01*
X50028571Y-33323809D01*
X50066666Y-33285714D01*
X50104761Y-33209523D01*
X50104761Y-33133333D01*
X50066666Y-33057142D01*
X50028571Y-33019047D01*
X49952380Y-32980952D01*
X49800000Y-32942857D01*
X49723809Y-32904761D01*
X49685714Y-32866666D01*
X49647619Y-32790476D01*
X49647619Y-32714285D01*
X49685714Y-32638095D01*
X49723809Y-32600000D01*
X49800000Y-32561904D01*
X49990476Y-32561904D01*
X50104761Y-32600000D01*
X50904761Y-33285714D02*
X50866666Y-33323809D01*
X50752380Y-33361904D01*
X50676190Y-33361904D01*
X50561904Y-33323809D01*
X50485714Y-33247619D01*
X50447619Y-33171428D01*
X50409523Y-33019047D01*
X50409523Y-32904761D01*
X50447619Y-32752380D01*
X50485714Y-32676190D01*
X50561904Y-32600000D01*
X50676190Y-32561904D01*
X50752380Y-32561904D01*
X50866666Y-32600000D01*
X50904761Y-32638095D01*
X51628571Y-33361904D02*
X51247619Y-33361904D01*
X51247619Y-32561904D01*
X51895238Y-33361904D02*
X51895238Y-32561904D01*
X52352380Y-33361904D02*
X52009523Y-32904761D01*
X52352380Y-32561904D02*
X51895238Y-33019047D01*
X53205952Y-37098809D02*
X53320238Y-37136904D01*
X53510714Y-37136904D01*
X53586904Y-37098809D01*
X53625000Y-37060714D01*
X53663095Y-36984523D01*
X53663095Y-36908333D01*
X53625000Y-36832142D01*
X53586904Y-36794047D01*
X53510714Y-36755952D01*
X53358333Y-36717857D01*
X53282142Y-36679761D01*
X53244047Y-36641666D01*
X53205952Y-36565476D01*
X53205952Y-36489285D01*
X53244047Y-36413095D01*
X53282142Y-36375000D01*
X53358333Y-36336904D01*
X53548809Y-36336904D01*
X53663095Y-36375000D01*
X54005952Y-37136904D02*
X54005952Y-36336904D01*
X55015476Y-33323809D02*
X55129761Y-33361904D01*
X55320238Y-33361904D01*
X55396428Y-33323809D01*
X55434523Y-33285714D01*
X55472619Y-33209523D01*
X55472619Y-33133333D01*
X55434523Y-33057142D01*
X55396428Y-33019047D01*
X55320238Y-32980952D01*
X55167857Y-32942857D01*
X55091666Y-32904761D01*
X55053571Y-32866666D01*
X55015476Y-32790476D01*
X55015476Y-32714285D01*
X55053571Y-32638095D01*
X55091666Y-32600000D01*
X55167857Y-32561904D01*
X55358333Y-32561904D01*
X55472619Y-32600000D01*
X56272619Y-33285714D02*
X56234523Y-33323809D01*
X56120238Y-33361904D01*
X56044047Y-33361904D01*
X55929761Y-33323809D01*
X55853571Y-33247619D01*
X55815476Y-33171428D01*
X55777380Y-33019047D01*
X55777380Y-32904761D01*
X55815476Y-32752380D01*
X55853571Y-32676190D01*
X55929761Y-32600000D01*
X56044047Y-32561904D01*
X56120238Y-32561904D01*
X56234523Y-32600000D01*
X56272619Y-32638095D01*
X56577380Y-33323809D02*
X56691666Y-33361904D01*
X56882142Y-33361904D01*
X56958333Y-33323809D01*
X56996428Y-33285714D01*
X57034523Y-33209523D01*
X57034523Y-33133333D01*
X56996428Y-33057142D01*
X56958333Y-33019047D01*
X56882142Y-32980952D01*
X56729761Y-32942857D01*
X56653571Y-32904761D01*
X56615476Y-32866666D01*
X56577380Y-32790476D01*
X56577380Y-32714285D01*
X56615476Y-32638095D01*
X56653571Y-32600000D01*
X56729761Y-32561904D01*
X56920238Y-32561904D01*
X57034523Y-32600000D01*
X57667857Y-36717857D02*
X57934523Y-36717857D01*
X58048809Y-37136904D02*
X57667857Y-37136904D01*
X57667857Y-36336904D01*
X58048809Y-36336904D01*
X58315476Y-36336904D02*
X58848809Y-37136904D01*
X58848809Y-36336904D02*
X58315476Y-37136904D01*
X59039285Y-36336904D02*
X59496428Y-36336904D01*
X59267857Y-37136904D02*
X59267857Y-36336904D01*
X57286904Y-38410714D02*
X57248809Y-38448809D01*
X57134523Y-38486904D01*
X57058333Y-38486904D01*
X56944047Y-38448809D01*
X56867857Y-38372619D01*
X56829761Y-38296428D01*
X56791666Y-38144047D01*
X56791666Y-38029761D01*
X56829761Y-37877380D01*
X56867857Y-37801190D01*
X56944047Y-37725000D01*
X57058333Y-37686904D01*
X57134523Y-37686904D01*
X57248809Y-37725000D01*
X57286904Y-37763095D01*
X57782142Y-37686904D02*
X57934523Y-37686904D01*
X58010714Y-37725000D01*
X58086904Y-37801190D01*
X58125000Y-37953571D01*
X58125000Y-38220238D01*
X58086904Y-38372619D01*
X58010714Y-38448809D01*
X57934523Y-38486904D01*
X57782142Y-38486904D01*
X57705952Y-38448809D01*
X57629761Y-38372619D01*
X57591666Y-38220238D01*
X57591666Y-37953571D01*
X57629761Y-37801190D01*
X57705952Y-37725000D01*
X57782142Y-37686904D01*
X58467857Y-38486904D02*
X58467857Y-37686904D01*
X58734523Y-38258333D01*
X59001190Y-37686904D01*
X59001190Y-38486904D01*
X59382142Y-38486904D02*
X59382142Y-37686904D01*
X59763095Y-38486904D02*
X59763095Y-37686904D01*
X60220238Y-38486904D01*
X60220238Y-37686904D01*
X60019047Y-33361904D02*
X60019047Y-32561904D01*
X60209523Y-32561904D01*
X60323809Y-32600000D01*
X60400000Y-32676190D01*
X60438095Y-32752380D01*
X60476190Y-32904761D01*
X60476190Y-33019047D01*
X60438095Y-33171428D01*
X60400000Y-33247619D01*
X60323809Y-33323809D01*
X60209523Y-33361904D01*
X60019047Y-33361904D01*
X60819047Y-33361904D02*
X60819047Y-32561904D01*
X61161904Y-33323809D02*
X61276190Y-33361904D01*
X61466666Y-33361904D01*
X61542857Y-33323809D01*
X61580952Y-33285714D01*
X61619047Y-33209523D01*
X61619047Y-33133333D01*
X61580952Y-33057142D01*
X61542857Y-33019047D01*
X61466666Y-32980952D01*
X61314285Y-32942857D01*
X61238095Y-32904761D01*
X61200000Y-32866666D01*
X61161904Y-32790476D01*
X61161904Y-32714285D01*
X61200000Y-32638095D01*
X61238095Y-32600000D01*
X61314285Y-32561904D01*
X61504761Y-32561904D01*
X61619047Y-32600000D01*
X61961904Y-33361904D02*
X61961904Y-32561904D01*
X62266666Y-32561904D01*
X62342857Y-32600000D01*
X62380952Y-32638095D01*
X62419047Y-32714285D01*
X62419047Y-32828571D01*
X62380952Y-32904761D01*
X62342857Y-32942857D01*
X62266666Y-32980952D01*
X61961904Y-32980952D01*
X62892857Y-36742857D02*
X63159523Y-36742857D01*
X63273809Y-37161904D02*
X62892857Y-37161904D01*
X62892857Y-36361904D01*
X63273809Y-36361904D01*
X63540476Y-36361904D02*
X64073809Y-37161904D01*
X64073809Y-36361904D02*
X63540476Y-37161904D01*
X64264285Y-36361904D02*
X64721428Y-36361904D01*
X64492857Y-37161904D02*
X64492857Y-36361904D01*
X64740476Y-38511904D02*
X64740476Y-37711904D01*
X65007142Y-38283333D01*
X65273809Y-37711904D01*
X65273809Y-38511904D01*
X65807142Y-37711904D02*
X65959523Y-37711904D01*
X66035714Y-37750000D01*
X66111904Y-37826190D01*
X66150000Y-37978571D01*
X66150000Y-38245238D01*
X66111904Y-38397619D01*
X66035714Y-38473809D01*
X65959523Y-38511904D01*
X65807142Y-38511904D01*
X65730952Y-38473809D01*
X65654761Y-38397619D01*
X65616666Y-38245238D01*
X65616666Y-37978571D01*
X65654761Y-37826190D01*
X65730952Y-37750000D01*
X65807142Y-37711904D01*
X66492857Y-38511904D02*
X66492857Y-37711904D01*
X66683333Y-37711904D01*
X66797619Y-37750000D01*
X66873809Y-37826190D01*
X66911904Y-37902380D01*
X66950000Y-38054761D01*
X66950000Y-38169047D01*
X66911904Y-38321428D01*
X66873809Y-38397619D01*
X66797619Y-38473809D01*
X66683333Y-38511904D01*
X66492857Y-38511904D01*
X67292857Y-38092857D02*
X67559523Y-38092857D01*
X67673809Y-38511904D02*
X67292857Y-38511904D01*
X67292857Y-37711904D01*
X67673809Y-37711904D01*
D11*
X65690476Y-32550000D02*
X65614285Y-32511904D01*
X65500000Y-32511904D01*
X65385714Y-32550000D01*
X65309523Y-32626190D01*
X65271428Y-32702380D01*
X65233333Y-32854761D01*
X65233333Y-32969047D01*
X65271428Y-33121428D01*
X65309523Y-33197619D01*
X65385714Y-33273809D01*
X65500000Y-33311904D01*
X65576190Y-33311904D01*
X65690476Y-33273809D01*
X65728571Y-33235714D01*
X65728571Y-32969047D01*
X65576190Y-32969047D01*
X66071428Y-33311904D02*
X66071428Y-32511904D01*
X66528571Y-33311904D01*
X66528571Y-32511904D01*
X66909523Y-33311904D02*
X66909523Y-32511904D01*
X67100000Y-32511904D01*
X67214285Y-32550000D01*
X67290476Y-32626190D01*
X67328571Y-32702380D01*
X67366666Y-32854761D01*
X67366666Y-32969047D01*
X67328571Y-33121428D01*
X67290476Y-33197619D01*
X67214285Y-33273809D01*
X67100000Y-33311904D01*
X66909523Y-33311904D01*
X67784523Y-36436904D02*
X68279761Y-36436904D01*
X68013095Y-36741666D01*
X68127380Y-36741666D01*
X68203571Y-36779761D01*
X68241666Y-36817857D01*
X68279761Y-36894047D01*
X68279761Y-37084523D01*
X68241666Y-37160714D01*
X68203571Y-37198809D01*
X68127380Y-37236904D01*
X67898809Y-37236904D01*
X67822619Y-37198809D01*
X67784523Y-37160714D01*
X68508333Y-36436904D02*
X68775000Y-37236904D01*
X69041666Y-36436904D01*
X69232142Y-36436904D02*
X69727380Y-36436904D01*
X69460714Y-36741666D01*
X69575000Y-36741666D01*
X69651190Y-36779761D01*
X69689285Y-36817857D01*
X69727380Y-36894047D01*
X69727380Y-37084523D01*
X69689285Y-37160714D01*
X69651190Y-37198809D01*
X69575000Y-37236904D01*
X69346428Y-37236904D01*
X69270238Y-37198809D01*
X69232142Y-37160714D01*
D12*
%TO.C,C1*%
X69310000Y-43540580D02*
X69310000Y-43259420D01*
X68290000Y-43540580D02*
X68290000Y-43259420D01*
%TO.C,C2*%
X62290000Y-43540580D02*
X62290000Y-43259420D01*
X63310000Y-43540580D02*
X63310000Y-43259420D01*
%TO.C,C3*%
X65609420Y-41460000D02*
X65890580Y-41460000D01*
X65609420Y-40440000D02*
X65890580Y-40440000D01*
%TO.C,C4*%
X65709420Y-46065000D02*
X65990580Y-46065000D01*
X65709420Y-47085000D02*
X65990580Y-47085000D01*
%TO.C,C5*%
X63840580Y-69360000D02*
X63559420Y-69360000D01*
X63840580Y-68340000D02*
X63559420Y-68340000D01*
%TO.C,C6*%
X63559420Y-71010000D02*
X63840580Y-71010000D01*
X63559420Y-69990000D02*
X63840580Y-69990000D01*
%TO.C,C7*%
X63559420Y-72660000D02*
X63840580Y-72660000D01*
X63559420Y-71640000D02*
X63840580Y-71640000D01*
%TO.C,IC1*%
X67410000Y-44725000D02*
X67410000Y-42275000D01*
X64190000Y-42925000D02*
X64190000Y-44725000D01*
%TO.C,J1*%
X70130000Y-33520000D02*
X70130000Y-34850000D01*
X68800000Y-33520000D02*
X70130000Y-33520000D01*
X67530000Y-33520000D02*
X67530000Y-36180000D01*
X67530000Y-36180000D02*
X49690000Y-36180000D01*
X67530000Y-33520000D02*
X49690000Y-33520000D01*
X49690000Y-33520000D02*
X49690000Y-36180000D01*
D11*
%TO.C,J2*%
X57660160Y-74747000D02*
G75*
G03*
X57660160Y-74747000I-113160J0D01*
G01*
X63800000Y-76900000D02*
X63800000Y-77800000D01*
X55700000Y-76900000D02*
X55700000Y-77600000D01*
X55700000Y-76900000D02*
X63800000Y-76900000D01*
X63800000Y-82500000D02*
X63800000Y-80860000D01*
X55700000Y-82500000D02*
X55700000Y-80860000D01*
X55700000Y-82500000D02*
X63800000Y-82500000D01*
D12*
%TO.C,JP1*%
X62250000Y-37750000D02*
X63650000Y-37750000D01*
X64350000Y-38450000D02*
X64350000Y-39050000D01*
X63650000Y-39750000D02*
X62250000Y-39750000D01*
X61550000Y-39050000D02*
X61550000Y-38450000D01*
X63650000Y-37750000D02*
G75*
G02*
X64350000Y-38450000I0J-700000D01*
G01*
X64350000Y-39050000D02*
G75*
G02*
X63650000Y-39750000I-700000J0D01*
G01*
X62250000Y-39750000D02*
G75*
G02*
X61550000Y-39050000I0J700000D01*
G01*
X61550000Y-38450000D02*
G75*
G02*
X62250000Y-37750000I700000J0D01*
G01*
%TO.C,C1*%
D10*
X70433333Y-43757142D02*
X70385714Y-43804761D01*
X70242857Y-43852380D01*
X70147619Y-43852380D01*
X70004761Y-43804761D01*
X69909523Y-43709523D01*
X69861904Y-43614285D01*
X69814285Y-43423809D01*
X69814285Y-43280952D01*
X69861904Y-43090476D01*
X69909523Y-42995238D01*
X70004761Y-42900000D01*
X70147619Y-42852380D01*
X70242857Y-42852380D01*
X70385714Y-42900000D01*
X70433333Y-42947619D01*
X71385714Y-43852380D02*
X70814285Y-43852380D01*
X71100000Y-43852380D02*
X71100000Y-42852380D01*
X71004761Y-42995238D01*
X70909523Y-43090476D01*
X70814285Y-43138095D01*
%TO.C,C2*%
X60883333Y-43782142D02*
X60835714Y-43829761D01*
X60692857Y-43877380D01*
X60597619Y-43877380D01*
X60454761Y-43829761D01*
X60359523Y-43734523D01*
X60311904Y-43639285D01*
X60264285Y-43448809D01*
X60264285Y-43305952D01*
X60311904Y-43115476D01*
X60359523Y-43020238D01*
X60454761Y-42925000D01*
X60597619Y-42877380D01*
X60692857Y-42877380D01*
X60835714Y-42925000D01*
X60883333Y-42972619D01*
X61264285Y-42972619D02*
X61311904Y-42925000D01*
X61407142Y-42877380D01*
X61645238Y-42877380D01*
X61740476Y-42925000D01*
X61788095Y-42972619D01*
X61835714Y-43067857D01*
X61835714Y-43163095D01*
X61788095Y-43305952D01*
X61216666Y-43877380D01*
X61835714Y-43877380D01*
%TO.C,C3*%
X62958333Y-41307142D02*
X62910714Y-41354761D01*
X62767857Y-41402380D01*
X62672619Y-41402380D01*
X62529761Y-41354761D01*
X62434523Y-41259523D01*
X62386904Y-41164285D01*
X62339285Y-40973809D01*
X62339285Y-40830952D01*
X62386904Y-40640476D01*
X62434523Y-40545238D01*
X62529761Y-40450000D01*
X62672619Y-40402380D01*
X62767857Y-40402380D01*
X62910714Y-40450000D01*
X62958333Y-40497619D01*
X63291666Y-40402380D02*
X63910714Y-40402380D01*
X63577380Y-40783333D01*
X63720238Y-40783333D01*
X63815476Y-40830952D01*
X63863095Y-40878571D01*
X63910714Y-40973809D01*
X63910714Y-41211904D01*
X63863095Y-41307142D01*
X63815476Y-41354761D01*
X63720238Y-41402380D01*
X63434523Y-41402380D01*
X63339285Y-41354761D01*
X63291666Y-41307142D01*
%TO.C,C4*%
X65683333Y-48482142D02*
X65635714Y-48529761D01*
X65492857Y-48577380D01*
X65397619Y-48577380D01*
X65254761Y-48529761D01*
X65159523Y-48434523D01*
X65111904Y-48339285D01*
X65064285Y-48148809D01*
X65064285Y-48005952D01*
X65111904Y-47815476D01*
X65159523Y-47720238D01*
X65254761Y-47625000D01*
X65397619Y-47577380D01*
X65492857Y-47577380D01*
X65635714Y-47625000D01*
X65683333Y-47672619D01*
X66540476Y-47910714D02*
X66540476Y-48577380D01*
X66302380Y-47529761D02*
X66064285Y-48244047D01*
X66683333Y-48244047D01*
%TO.C,C5*%
X66157142Y-68816666D02*
X66204761Y-68864285D01*
X66252380Y-69007142D01*
X66252380Y-69102380D01*
X66204761Y-69245238D01*
X66109523Y-69340476D01*
X66014285Y-69388095D01*
X65823809Y-69435714D01*
X65680952Y-69435714D01*
X65490476Y-69388095D01*
X65395238Y-69340476D01*
X65300000Y-69245238D01*
X65252380Y-69102380D01*
X65252380Y-69007142D01*
X65300000Y-68864285D01*
X65347619Y-68816666D01*
X65252380Y-67911904D02*
X65252380Y-68388095D01*
X65728571Y-68435714D01*
X65680952Y-68388095D01*
X65633333Y-68292857D01*
X65633333Y-68054761D01*
X65680952Y-67959523D01*
X65728571Y-67911904D01*
X65823809Y-67864285D01*
X66061904Y-67864285D01*
X66157142Y-67911904D01*
X66204761Y-67959523D01*
X66252380Y-68054761D01*
X66252380Y-68292857D01*
X66204761Y-68388095D01*
X66157142Y-68435714D01*
%TO.C,C6*%
X66157142Y-70666666D02*
X66204761Y-70714285D01*
X66252380Y-70857142D01*
X66252380Y-70952380D01*
X66204761Y-71095238D01*
X66109523Y-71190476D01*
X66014285Y-71238095D01*
X65823809Y-71285714D01*
X65680952Y-71285714D01*
X65490476Y-71238095D01*
X65395238Y-71190476D01*
X65300000Y-71095238D01*
X65252380Y-70952380D01*
X65252380Y-70857142D01*
X65300000Y-70714285D01*
X65347619Y-70666666D01*
X65252380Y-69809523D02*
X65252380Y-70000000D01*
X65300000Y-70095238D01*
X65347619Y-70142857D01*
X65490476Y-70238095D01*
X65680952Y-70285714D01*
X66061904Y-70285714D01*
X66157142Y-70238095D01*
X66204761Y-70190476D01*
X66252380Y-70095238D01*
X66252380Y-69904761D01*
X66204761Y-69809523D01*
X66157142Y-69761904D01*
X66061904Y-69714285D01*
X65823809Y-69714285D01*
X65728571Y-69761904D01*
X65680952Y-69809523D01*
X65633333Y-69904761D01*
X65633333Y-70095238D01*
X65680952Y-70190476D01*
X65728571Y-70238095D01*
X65823809Y-70285714D01*
%TO.C,C7*%
X66107142Y-72516666D02*
X66154761Y-72564285D01*
X66202380Y-72707142D01*
X66202380Y-72802380D01*
X66154761Y-72945238D01*
X66059523Y-73040476D01*
X65964285Y-73088095D01*
X65773809Y-73135714D01*
X65630952Y-73135714D01*
X65440476Y-73088095D01*
X65345238Y-73040476D01*
X65250000Y-72945238D01*
X65202380Y-72802380D01*
X65202380Y-72707142D01*
X65250000Y-72564285D01*
X65297619Y-72516666D01*
X65202380Y-72183333D02*
X65202380Y-71516666D01*
X66202380Y-71945238D01*
%TO.C,IC1*%
X67823809Y-41502380D02*
X67823809Y-40502380D01*
X68871428Y-41407142D02*
X68823809Y-41454761D01*
X68680952Y-41502380D01*
X68585714Y-41502380D01*
X68442857Y-41454761D01*
X68347619Y-41359523D01*
X68300000Y-41264285D01*
X68252380Y-41073809D01*
X68252380Y-40930952D01*
X68300000Y-40740476D01*
X68347619Y-40645238D01*
X68442857Y-40550000D01*
X68585714Y-40502380D01*
X68680952Y-40502380D01*
X68823809Y-40550000D01*
X68871428Y-40597619D01*
X69823809Y-41502380D02*
X69252380Y-41502380D01*
X69538095Y-41502380D02*
X69538095Y-40502380D01*
X69442857Y-40645238D01*
X69347619Y-40740476D01*
X69252380Y-40788095D01*
%TO.C,J1*%
X71216666Y-34302380D02*
X71216666Y-35016666D01*
X71169047Y-35159523D01*
X71073809Y-35254761D01*
X70930952Y-35302380D01*
X70835714Y-35302380D01*
X72216666Y-35302380D02*
X71645238Y-35302380D01*
X71930952Y-35302380D02*
X71930952Y-34302380D01*
X71835714Y-34445238D01*
X71740476Y-34540476D01*
X71645238Y-34588095D01*
%TO.C,J2*%
D13*
X59011576Y-78858413D02*
X59011576Y-79765556D01*
X58951100Y-79946985D01*
X58830148Y-80067937D01*
X58648719Y-80128413D01*
X58527767Y-80128413D01*
X59555862Y-78979366D02*
X59616338Y-78918890D01*
X59737290Y-78858413D01*
X60039671Y-78858413D01*
X60160624Y-78918890D01*
X60221100Y-78979366D01*
X60281576Y-79100318D01*
X60281576Y-79221270D01*
X60221100Y-79402699D01*
X59495386Y-80128413D01*
X60281576Y-80128413D01*
%TO.C,JP1*%
D10*
X59416666Y-39252380D02*
X59416666Y-39966666D01*
X59369047Y-40109523D01*
X59273809Y-40204761D01*
X59130952Y-40252380D01*
X59035714Y-40252380D01*
X59892857Y-40252380D02*
X59892857Y-39252380D01*
X60273809Y-39252380D01*
X60369047Y-39300000D01*
X60416666Y-39347619D01*
X60464285Y-39442857D01*
X60464285Y-39585714D01*
X60416666Y-39680952D01*
X60369047Y-39728571D01*
X60273809Y-39776190D01*
X59892857Y-39776190D01*
X61416666Y-40252380D02*
X60845238Y-40252380D01*
X61130952Y-40252380D02*
X61130952Y-39252380D01*
X61035714Y-39395238D01*
X60940476Y-39490476D01*
X60845238Y-39538095D01*
%TD*%
M02*
