M48
; DRILL file {KiCad 5.1.7-a382d34a8~88~ubuntu20.04.1} date Tue Dec 22 17:38:31 2020
; FORMAT={-:-/ absolute / inch / decimal}
; #@! TF.CreationDate,2020-12-22T17:38:31+00:00
; #@! TF.GenerationSoftware,Kicad,Pcbnew,5.1.7-a382d34a8~88~ubuntu20.04.1
FMAT,2
INCH
T1C0.0157
T2C0.0394
T3C0.0866
%
G90
G05
T1
X2.4016Y-1.5256
X2.4094Y-1.4567
X2.4173Y-2.9173
X2.4764Y-2.6575
X2.4803Y-2.9961
X2.5394Y-2.8917
X1.1476Y-3.2894
X1.1667Y-3.2434
X1.1667Y-3.3353
X1.2126Y-3.2244
X1.2126Y-3.3543
X1.2585Y-3.2434
X1.2585Y-3.3353
X1.2776Y-3.2894
X3.439Y-1.3681
X3.458Y-1.3222
X3.458Y-1.414
X3.5039Y-1.3031
X3.5039Y-1.4331
X3.5499Y-1.3222
X3.5499Y-1.414
X3.5689Y-1.3681
X3.4449Y-3.2894
X3.4639Y-3.2434
X3.4639Y-3.3353
X3.5098Y-3.2244
X3.5098Y-3.3543
X3.5558Y-3.2434
X3.5558Y-3.3353
X3.5748Y-3.2894
X1.1555Y-1.3681
X1.1745Y-1.3222
X1.1745Y-1.414
X1.2205Y-1.3031
X1.2205Y-1.4331
X1.2664Y-1.3222
X1.2664Y-1.414
X1.2854Y-1.3681
T2
X2.0087Y-1.372
X2.1087Y-1.372
X2.2087Y-1.372
X2.3087Y-1.372
X2.4087Y-1.372
X2.5087Y-1.372
X2.6087Y-1.372
X2.7087Y-1.372
T3
X1.2126Y-3.2894
X3.5039Y-1.3681
X3.5098Y-3.2894
X1.2205Y-1.3681
T0
M30
