%TF.GenerationSoftware,KiCad,Pcbnew,5.1.7-a382d34a8~88~ubuntu20.04.1*%
%TF.CreationDate,2020-12-22T17:38:33+00:00*%
%TF.ProjectId,DisplayBreakoutBoard,44697370-6c61-4794-9272-65616b6f7574,v1*%
%TF.SameCoordinates,Original*%
%TF.FileFunction,Paste,Top*%
%TF.FilePolarity,Positive*%
%FSLAX46Y46*%
G04 Gerber Fmt 4.6, Leading zero omitted, Abs format (unit mm)*
G04 Created by KiCad (PCBNEW 5.1.7-a382d34a8~88~ubuntu20.04.1) date 2020-12-22 17:38:33*
%MOMM*%
%LPD*%
G01*
G04 APERTURE LIST*
%ADD10R,0.650000X1.060000*%
%ADD11R,1.800000X2.200000*%
%ADD12R,0.300000X1.300000*%
G04 APERTURE END LIST*
%TO.C,C1*%
G36*
G01*
X69050000Y-44625000D02*
X68550000Y-44625000D01*
G75*
G02*
X68325000Y-44400000I0J225000D01*
G01*
X68325000Y-43950000D01*
G75*
G02*
X68550000Y-43725000I225000J0D01*
G01*
X69050000Y-43725000D01*
G75*
G02*
X69275000Y-43950000I0J-225000D01*
G01*
X69275000Y-44400000D01*
G75*
G02*
X69050000Y-44625000I-225000J0D01*
G01*
G37*
G36*
G01*
X69050000Y-43075000D02*
X68550000Y-43075000D01*
G75*
G02*
X68325000Y-42850000I0J225000D01*
G01*
X68325000Y-42400000D01*
G75*
G02*
X68550000Y-42175000I225000J0D01*
G01*
X69050000Y-42175000D01*
G75*
G02*
X69275000Y-42400000I0J-225000D01*
G01*
X69275000Y-42850000D01*
G75*
G02*
X69050000Y-43075000I-225000J0D01*
G01*
G37*
%TD*%
%TO.C,C2*%
G36*
G01*
X63050000Y-43075000D02*
X62550000Y-43075000D01*
G75*
G02*
X62325000Y-42850000I0J225000D01*
G01*
X62325000Y-42400000D01*
G75*
G02*
X62550000Y-42175000I225000J0D01*
G01*
X63050000Y-42175000D01*
G75*
G02*
X63275000Y-42400000I0J-225000D01*
G01*
X63275000Y-42850000D01*
G75*
G02*
X63050000Y-43075000I-225000J0D01*
G01*
G37*
G36*
G01*
X63050000Y-44625000D02*
X62550000Y-44625000D01*
G75*
G02*
X62325000Y-44400000I0J225000D01*
G01*
X62325000Y-43950000D01*
G75*
G02*
X62550000Y-43725000I225000J0D01*
G01*
X63050000Y-43725000D01*
G75*
G02*
X63275000Y-43950000I0J-225000D01*
G01*
X63275000Y-44400000D01*
G75*
G02*
X63050000Y-44625000I-225000J0D01*
G01*
G37*
%TD*%
%TO.C,C3*%
G36*
G01*
X64525000Y-41200000D02*
X64525000Y-40700000D01*
G75*
G02*
X64750000Y-40475000I225000J0D01*
G01*
X65200000Y-40475000D01*
G75*
G02*
X65425000Y-40700000I0J-225000D01*
G01*
X65425000Y-41200000D01*
G75*
G02*
X65200000Y-41425000I-225000J0D01*
G01*
X64750000Y-41425000D01*
G75*
G02*
X64525000Y-41200000I0J225000D01*
G01*
G37*
G36*
G01*
X66075000Y-41200000D02*
X66075000Y-40700000D01*
G75*
G02*
X66300000Y-40475000I225000J0D01*
G01*
X66750000Y-40475000D01*
G75*
G02*
X66975000Y-40700000I0J-225000D01*
G01*
X66975000Y-41200000D01*
G75*
G02*
X66750000Y-41425000I-225000J0D01*
G01*
X66300000Y-41425000D01*
G75*
G02*
X66075000Y-41200000I0J225000D01*
G01*
G37*
%TD*%
%TO.C,C4*%
G36*
G01*
X66175000Y-46825000D02*
X66175000Y-46325000D01*
G75*
G02*
X66400000Y-46100000I225000J0D01*
G01*
X66850000Y-46100000D01*
G75*
G02*
X67075000Y-46325000I0J-225000D01*
G01*
X67075000Y-46825000D01*
G75*
G02*
X66850000Y-47050000I-225000J0D01*
G01*
X66400000Y-47050000D01*
G75*
G02*
X66175000Y-46825000I0J225000D01*
G01*
G37*
G36*
G01*
X64625000Y-46825000D02*
X64625000Y-46325000D01*
G75*
G02*
X64850000Y-46100000I225000J0D01*
G01*
X65300000Y-46100000D01*
G75*
G02*
X65525000Y-46325000I0J-225000D01*
G01*
X65525000Y-46825000D01*
G75*
G02*
X65300000Y-47050000I-225000J0D01*
G01*
X64850000Y-47050000D01*
G75*
G02*
X64625000Y-46825000I0J225000D01*
G01*
G37*
%TD*%
%TO.C,C5*%
G36*
G01*
X63375000Y-68600000D02*
X63375000Y-69100000D01*
G75*
G02*
X63150000Y-69325000I-225000J0D01*
G01*
X62700000Y-69325000D01*
G75*
G02*
X62475000Y-69100000I0J225000D01*
G01*
X62475000Y-68600000D01*
G75*
G02*
X62700000Y-68375000I225000J0D01*
G01*
X63150000Y-68375000D01*
G75*
G02*
X63375000Y-68600000I0J-225000D01*
G01*
G37*
G36*
G01*
X64925000Y-68600000D02*
X64925000Y-69100000D01*
G75*
G02*
X64700000Y-69325000I-225000J0D01*
G01*
X64250000Y-69325000D01*
G75*
G02*
X64025000Y-69100000I0J225000D01*
G01*
X64025000Y-68600000D01*
G75*
G02*
X64250000Y-68375000I225000J0D01*
G01*
X64700000Y-68375000D01*
G75*
G02*
X64925000Y-68600000I0J-225000D01*
G01*
G37*
%TD*%
%TO.C,C6*%
G36*
G01*
X62475000Y-70750000D02*
X62475000Y-70250000D01*
G75*
G02*
X62700000Y-70025000I225000J0D01*
G01*
X63150000Y-70025000D01*
G75*
G02*
X63375000Y-70250000I0J-225000D01*
G01*
X63375000Y-70750000D01*
G75*
G02*
X63150000Y-70975000I-225000J0D01*
G01*
X62700000Y-70975000D01*
G75*
G02*
X62475000Y-70750000I0J225000D01*
G01*
G37*
G36*
G01*
X64025000Y-70750000D02*
X64025000Y-70250000D01*
G75*
G02*
X64250000Y-70025000I225000J0D01*
G01*
X64700000Y-70025000D01*
G75*
G02*
X64925000Y-70250000I0J-225000D01*
G01*
X64925000Y-70750000D01*
G75*
G02*
X64700000Y-70975000I-225000J0D01*
G01*
X64250000Y-70975000D01*
G75*
G02*
X64025000Y-70750000I0J225000D01*
G01*
G37*
%TD*%
%TO.C,C7*%
G36*
G01*
X62475000Y-72400000D02*
X62475000Y-71900000D01*
G75*
G02*
X62700000Y-71675000I225000J0D01*
G01*
X63150000Y-71675000D01*
G75*
G02*
X63375000Y-71900000I0J-225000D01*
G01*
X63375000Y-72400000D01*
G75*
G02*
X63150000Y-72625000I-225000J0D01*
G01*
X62700000Y-72625000D01*
G75*
G02*
X62475000Y-72400000I0J225000D01*
G01*
G37*
G36*
G01*
X64025000Y-72400000D02*
X64025000Y-71900000D01*
G75*
G02*
X64250000Y-71675000I225000J0D01*
G01*
X64700000Y-71675000D01*
G75*
G02*
X64925000Y-71900000I0J-225000D01*
G01*
X64925000Y-72400000D01*
G75*
G02*
X64700000Y-72625000I-225000J0D01*
G01*
X64250000Y-72625000D01*
G75*
G02*
X64025000Y-72400000I0J225000D01*
G01*
G37*
%TD*%
D10*
%TO.C,IC1*%
X66750000Y-42725000D03*
X65800000Y-42725000D03*
X64850000Y-42725000D03*
X64850000Y-44925000D03*
X66750000Y-44925000D03*
%TD*%
D11*
%TO.C,J2*%
X63900000Y-79350000D03*
X55600000Y-79350000D03*
D12*
X62000000Y-76100000D03*
X61500000Y-76100000D03*
X61000000Y-76100000D03*
X60500000Y-76100000D03*
X60000000Y-76100000D03*
X59500000Y-76100000D03*
X59000000Y-76100000D03*
X58500000Y-76100000D03*
X58000000Y-76100000D03*
X57500000Y-76100000D03*
%TD*%
M02*
